<svg xmlns="http://www.w3.org/2000/svg" version="1.1" xmlns:xlink="http://www.w3.org/1999/xlink" xmlns:svgjs="http://svgjs.dev/svgjs" width="1000" height="1000" viewBox="0 0 1000 1000"><rect width="1000" height="1000" fill="#000000"></rect><g transform="matrix(0.7,0,0,0.7,150,281.25)"><svg viewBox="0 0 576 360" data-background-color="#ffa96a" preserveAspectRatio="xMidYMid meet" height="625" width="1000" xmlns="http://www.w3.org/2000/svg" xmlns:xlink="http://www.w3.org/1999/xlink"><g id="tight-bounds" transform="matrix(1,0,0,1,0,0)"><svg viewBox="0 0 576 360" height="360" width="576"><g><svg></svg></g><g><svg viewBox="0 0 576 360" height="360" width="576"><g><path xmlns="http://www.w3.org/2000/svg" d="M132.115 90l155.885-90 155.885 90v180l-155.885 90-155.885-90zM142.508 264l145.492 84 145.492-84v-168l-145.492-84-145.492 84z" fill="#ffffff" fill-rule="nonzero" stroke="none" stroke-width="1" stroke-linecap="butt" stroke-linejoin="miter" stroke-miterlimit="10" stroke-dasharray="" stroke-dashoffset="0" font-family="none" font-weight="none" font-size="none" text-anchor="none" style="mix-blend-mode: normal" data-fill-palette-color="tertiary"></path></g><g transform="matrix(1,0,0,1,231.50749486104814,99)"><svg viewBox="0 0 112.98501027790374 162" height="162" width="112.98501027790374"><g><svg viewBox="0 0 112.98501027790374 162" height="162" width="112.98501027790374"><g><svg viewBox="0 0 158.82592313489073 227.7275497392615" height="162" width="112.98501027790374"><g><svg viewBox="0 0 158.82592313489073 162" height="162" width="158.82592313489073"><g id="textblocktransform"><svg viewBox="0 0 158.82592313489073 162" height="162" width="158.82592313489073" id="textblock"><g><svg viewBox="0 0 158.82592313489073 162" height="162" width="158.82592313489073"><g transform="matrix(1,0,0,1,0,0)"><svg width="158.82592313489073" viewBox="2.8600001335144043 -32.400001525878906 31.759998321533203 32.400001525878906" height="162" data-palette-color="#000000"><path d="M13.65 0L2.86 0 2.86-32.4 13.65-32.4 13.65 0ZM34.11-32.4L15.31-4.59 15.31-20.34 22.88-32.37 34.11-32.4ZM25.68-17.14L34.62 0 22.95 0 19.29-7.54 25.68-17.14Z" opacity="1" transform="matrix(1,0,0,1,0,0)" fill="#ffffff" class="undefined-text-0" data-fill-palette-color="primary" id="text-0"></path></svg></g></svg></g></svg></g></svg></g><g transform="matrix(1,0,0,1,54.874356443104745,200.244312)"><svg viewBox="0 0 49.07721024868123 27.48323773926149" height="27.48323773926149" width="49.07721024868123"><g><svg version="1.1" xmlns="http://www.w3.org/2000/svg" xmlns:xlink="http://www.w3.org/1999/xlink" x="0" y="0" viewBox="0 0 100 56" enable-background="new 0 0 100 56" xml:space="preserve" height="27.48323773926149" width="49.07721024868123" class="icon-icon-0" data-fill-palette-color="accent" id="icon-0"><path d="M57 51v1c0 0.553-0.447 1-1 1H44c-0.553 0-1-0.447-1-1v-1H0v2c0 0 0 3 3 3h94c3 0 3-3 3-3v-2H57z" fill="#ffffff" data-fill-palette-color="accent"></path><path d="M85 0H15c-1.658 0-3 1.343-3 3v1 41c0 1.657 1.342 3 3 3h1 68 1c1.656 0 3-1.343 3-3V4 3C88 1.343 86.657 0 85 0zM84 44H16V4h68V44z" fill="#ffffff" data-fill-palette-color="accent"></path></svg></g></svg></g><g></g></svg></g></svg></g></svg></g></svg></g><defs></defs></svg><rect width="576" height="360" fill="none" stroke="none" visibility="hidden"></rect></g></svg></g></svg>